<?xml version="1.0" encoding="utf-8"?>
<!-- Generator: Adobe Illustrator 21.0.0, SVG Export Plug-In . SVG Version: 6.00 Build 0)  -->
<svg version="1.1" id="Layer_1" xmlns="http://www.w3.org/2000/svg" xmlns:xlink="http://www.w3.org/1999/xlink" x="0px" y="0px"
	 width="105px" height="24px" viewBox="0 0 105 24" style="enable-background:new 0 0 105 24;" xml:space="preserve">
<style type="text/css">
	.st0{fill:#A71C1E;}
	.st1{fill:#82171B;}
	.st2{fill:#0D1113;}
	.st3{fill:#EBCB20;}
	.st4{fill:#FFFFFF;}
</style>
<g>
	<g>
		<path class="st0" d="M17.5,9.8l-3.7,1.3l1.2,3.3l2.8-1c-0.6,3-3.3,5.3-6.5,5.3c-3.7,0-6.6-3-6.6-6.6c0-3.7,3-6.6,6.6-6.6
			c1.8,0,3.3,0.7,4.5,1.8l3.7-1.3c-1.7-2.2-4.3-3.8-7.3-4.1C6.5,1.3,1.5,5.5,1,11.1c-0.5,5.6,3.7,10.6,9.3,11.1
			c5.6,0.5,10.6-3.7,11.1-9.3c0-0.3,0-0.6,0-0.9L17.5,9.8z"/>
		<path class="st1" d="M17.7,13.4c-0.1,0.6-0.3,1.1-0.6,1.7l4.3-3L17.7,13.4z"/>
		<g>
			<polygon class="st2" points="17.5,9.8 13.8,11.1 14.2,12.1 18.7,10.5 			"/>
			<polygon class="st0" points="18.7,10.5 14.2,12.1 14.6,13.3 20.1,11.2 			"/>
			<polygon class="st3" points="20.1,11.2 14.6,13.3 15,14.3 19.7,12.6 21.5,12 			"/>
		</g>
	</g>
	<g>
		<path class="st4" d="M35.9,8.6l-1.6,1.5c-0.3-0.6-0.8-1-1.3-1.3c-0.5-0.3-1-0.4-1.6-0.4c-0.9,0-1.7,0.3-2.3,1
			c-0.6,0.7-1,1.5-1,2.4c0,1,0.3,1.8,1,2.5c0.7,0.7,1.4,1,2.4,1c0.5,0,1-0.1,1.4-0.4c0.5-0.3,0.8-0.7,1.1-1.4h-2.7v-2.2h5.2v1.5
			c0,0.8-0.3,1.6-0.8,2.4c-0.5,0.9-1.2,1.5-2,1.9c-0.8,0.4-1.7,0.6-2.6,0.6c-1.6,0-2.9-0.6-3.9-1.7c-1.1-1.1-1.6-2.5-1.6-4.2
			c0-1.6,0.6-2.9,1.7-4c1.1-1.1,2.4-1.7,4-1.7C33.3,6,34.8,6.9,35.9,8.6z"/>
		<path class="st4" d="M37.7,6.2h6.4v2.2h-3.9v2.3h3.9v2.2h-3.9v2.3h3.9v2.2h-6.4V6.2z"/>
		<path class="st4" d="M45.4,6.2h3.7c1.1,0,2,0.3,2.7,0.9c0.7,0.6,1,1.4,1,2.4c0,0.6-0.2,1.2-0.5,1.8c-0.3,0.6-0.9,1.1-1.7,1.5
			l3.2,4.7h-2.8l-2.9-4.4h-0.3v4.4h-2.4V6.2L45.4,6.2z M47.9,8.2v2.9h0.5c1.3,0,1.9-0.5,1.9-1.6c0-0.4-0.2-0.8-0.5-1
			c-0.3-0.3-0.8-0.4-1.4-0.4C48.4,8.2,47.9,8.2,47.9,8.2z"/>
		<path class="st4" d="M55.8,6.2h2.9l2.1,6.8l2.1-6.8h2.8l1.5,11.3h-2.3l-1-7.9l-2.5,7.9h-1.1l-2.5-8l-0.9,8h-2.4L55.8,6.2z"/>
		<path class="st4" d="M72.2,6.2h1.9l4.6,11.3h-2.4l-0.9-2.2H71l-0.9,2.2h-2.4L72.2,6.2z M73.1,9.9l-1.3,3.3h2.7L73.1,9.9z"/>
		<path class="st4" d="M86.8,6.2h2.4v11.3h-2.4l-5.2-7.3v7.3h-2.4V6.2h2.4l5.2,7.3L86.8,6.2L86.8,6.2z"/>
		<path class="st4" d="M90.6,6.2H93v11.3h-2.4V6.2z"/>
		<path class="st4" d="M98.5,6.2h1.9l4.6,11.3h-2.4l-0.9-2.2h-4.3l-0.9,2.2H94L98.5,6.2z M99.5,9.9l-1.3,3.3h2.7L99.5,9.9z"/>
	</g>
</g>
</svg>
