<svg width="232" height="154" viewBox="0 0 232 154" fill="none" xmlns="http://www.w3.org/2000/svg">
<path d="M88.4407 42L84.3781 37.4986V42H83.09V32.1337H84.3781V36.7059L88.4548 32.1337H90.0827L85.6096 37.0739L90.1252 42H88.4407ZM92.8519 31.525V42H91.5638V31.525H92.8519ZM95.7127 32.983C95.4673 32.983 95.2597 32.8981 95.0898 32.7283C94.92 32.5584 94.835 32.3508 94.835 32.1054C94.835 31.8601 94.92 31.6524 95.0898 31.4826C95.2597 31.3127 95.4673 31.2278 95.7127 31.2278C95.9486 31.2278 96.1468 31.3127 96.3072 31.4826C96.477 31.6524 96.562 31.8601 96.562 32.1054C96.562 32.3508 96.477 32.5584 96.3072 32.7283C96.1468 32.8981 95.9486 32.983 95.7127 32.983ZM96.3355 34.2429V42H95.0474V34.2429H96.3355ZM102.31 34.1013C103.254 34.1013 104.018 34.3891 104.604 34.9648C105.189 35.531 105.481 36.352 105.481 37.4278V42H104.207V37.6118C104.207 36.838 104.014 36.2482 103.627 35.8424C103.24 35.4272 102.711 35.2196 102.041 35.2196C101.362 35.2196 100.819 35.4319 100.414 35.8566C100.017 36.2812 99.819 36.8994 99.819 37.7109V42H98.5309V34.2429H99.819V35.347C100.074 34.9506 100.418 34.6439 100.852 34.4269C101.296 34.2098 101.782 34.1013 102.31 34.1013ZM108.251 32.983C108.005 32.983 107.798 32.8981 107.628 32.7283C107.458 32.5584 107.373 32.3508 107.373 32.1054C107.373 31.8601 107.458 31.6524 107.628 31.4826C107.798 31.3127 108.005 31.2278 108.251 31.2278C108.487 31.2278 108.685 31.3127 108.845 31.4826C109.015 31.6524 109.1 31.8601 109.1 32.1054C109.1 32.3508 109.015 32.5584 108.845 32.7283C108.685 32.8981 108.487 32.983 108.251 32.983ZM108.873 34.2429V42H107.585V34.2429H108.873ZM115.4 42L112.357 38.5744V42H111.069V31.525H112.357V37.6826L115.344 34.2429H117.142L113.489 38.1073L117.156 42H115.4ZM117.873 38.0931C117.873 37.3004 118.033 36.6068 118.354 36.0123C118.675 35.4083 119.114 34.9412 119.67 34.6109C120.237 34.2806 120.864 34.1155 121.553 34.1155C122.232 34.1155 122.822 34.2617 123.322 34.5543C123.823 34.8468 124.195 35.2149 124.441 35.6584V34.2429H125.743V42H124.441V40.5562C124.186 41.0091 123.804 41.3866 123.294 41.6886C122.794 41.9811 122.209 42.1274 121.539 42.1274C120.85 42.1274 120.227 41.9575 119.67 41.6178C119.114 41.2781 118.675 40.8015 118.354 40.1881C118.033 39.5747 117.873 38.8764 117.873 38.0931ZM124.441 38.1073C124.441 37.5222 124.323 37.0126 124.087 36.5785C123.851 36.1444 123.53 35.8141 123.124 35.5876C122.728 35.3517 122.289 35.2337 121.808 35.2337C121.327 35.2337 120.888 35.347 120.491 35.5735C120.095 35.8 119.779 36.1303 119.543 36.5643C119.307 36.9984 119.189 37.508 119.189 38.0931C119.189 38.6877 119.307 39.2067 119.543 39.6502C119.779 40.0843 120.095 40.4193 120.491 40.6552C120.888 40.8817 121.327 40.995 121.808 40.995C122.289 40.995 122.728 40.8817 123.124 40.6552C123.53 40.4193 123.851 40.0843 124.087 39.6502C124.323 39.2067 124.441 38.6924 124.441 38.1073ZM132.656 40.9383H136.464V42H131.184V40.9383L134.949 35.2904H131.212V34.2429H136.436V35.2904L132.656 40.9383ZM137.654 38.0931C137.654 37.3004 137.815 36.6068 138.135 36.0123C138.456 35.4083 138.895 34.9412 139.452 34.6109C140.018 34.2806 140.646 34.1155 141.335 34.1155C142.014 34.1155 142.604 34.2617 143.104 34.5543C143.604 34.8468 143.977 35.2149 144.222 35.6584V34.2429H145.525V42H144.222V40.5562C143.967 41.0091 143.585 41.3866 143.076 41.6886C142.575 41.9811 141.99 42.1274 141.32 42.1274C140.631 42.1274 140.009 41.9575 139.452 41.6178C138.895 41.2781 138.456 40.8015 138.135 40.1881C137.815 39.5747 137.654 38.8764 137.654 38.0931ZM144.222 38.1073C144.222 37.5222 144.104 37.0126 143.868 36.5785C143.632 36.1444 143.312 35.8141 142.906 35.5876C142.509 35.3517 142.071 35.2337 141.589 35.2337C141.108 35.2337 140.669 35.347 140.273 35.5735C139.877 35.8 139.56 36.1303 139.324 36.5643C139.089 36.9984 138.971 37.508 138.971 38.0931C138.971 38.6877 139.089 39.2067 139.324 39.6502C139.56 40.0843 139.877 40.4193 140.273 40.6552C140.669 40.8817 141.108 40.995 141.589 40.995C142.071 40.995 142.509 40.8817 142.906 40.6552C143.312 40.4193 143.632 40.0843 143.868 39.6502C144.104 39.2067 144.222 38.6924 144.222 38.1073ZM152.763 35.6726C153.018 35.229 153.396 34.861 153.896 34.5684C154.405 34.2665 154.995 34.1155 155.665 34.1155C156.354 34.1155 156.977 34.2806 157.534 34.6109C158.1 34.9412 158.543 35.4083 158.864 36.0123C159.185 36.6068 159.346 37.3004 159.346 38.0931C159.346 38.8764 159.185 39.5747 158.864 40.1881C158.543 40.8015 158.1 41.2781 157.534 41.6178C156.977 41.9575 156.354 42.1274 155.665 42.1274C155.005 42.1274 154.419 41.9811 153.91 41.6886C153.41 41.3866 153.028 41.0138 152.763 40.5703V45.6804H151.475V34.2429H152.763V35.6726ZM158.029 38.0931C158.029 37.508 157.911 36.9984 157.675 36.5643C157.439 36.1303 157.118 35.8 156.713 35.5735C156.316 35.347 155.877 35.2337 155.396 35.2337C154.924 35.2337 154.486 35.3517 154.08 35.5876C153.683 35.8141 153.363 36.1491 153.117 36.5927C152.881 37.0268 152.763 37.5316 152.763 38.1073C152.763 38.6924 152.881 39.2067 153.117 39.6502C153.363 40.0843 153.683 40.4193 154.08 40.6552C154.486 40.8817 154.924 40.995 155.396 40.995C155.877 40.995 156.316 40.8817 156.713 40.6552C157.118 40.4193 157.439 40.0843 157.675 39.6502C157.911 39.2067 158.029 38.6877 158.029 38.0931ZM163.787 42.1274C163.193 42.1274 162.66 42.0283 162.188 41.8301C161.716 41.6225 161.343 41.3394 161.069 40.9808C160.796 40.6128 160.645 40.1928 160.616 39.721H161.947C161.985 40.1079 162.164 40.424 162.485 40.6694C162.815 40.9148 163.245 41.0374 163.773 41.0374C164.264 41.0374 164.651 40.9289 164.934 40.7119C165.217 40.4948 165.358 40.2211 165.358 39.8909C165.358 39.5511 165.207 39.301 164.906 39.1406C164.604 38.9708 164.136 38.8056 163.504 38.6452C162.928 38.4942 162.457 38.3432 162.089 38.1922C161.73 38.0318 161.419 37.8006 161.154 37.4986C160.9 37.1872 160.772 36.7814 160.772 36.2812C160.772 35.8849 160.89 35.5216 161.126 35.1913C161.362 34.861 161.697 34.6015 162.131 34.4127C162.565 34.2146 163.061 34.1155 163.617 34.1155C164.476 34.1155 165.17 34.3325 165.698 34.7666C166.227 35.2007 166.51 35.7952 166.548 36.5502H165.259C165.231 36.1444 165.066 35.8188 164.764 35.5735C164.471 35.3281 164.075 35.2054 163.575 35.2054C163.112 35.2054 162.744 35.3045 162.471 35.5027C162.197 35.7009 162.06 35.9604 162.06 36.2812C162.06 36.536 162.14 36.7484 162.301 36.9182C162.471 37.0787 162.678 37.2108 162.924 37.3146C163.179 37.409 163.528 37.5175 163.971 37.6402C164.528 37.7911 164.981 37.9421 165.33 38.0931C165.679 38.2347 165.977 38.4517 166.222 38.7443C166.477 39.0368 166.609 39.419 166.618 39.8909C166.618 40.3155 166.5 40.6977 166.264 41.0374C166.028 41.3772 165.693 41.6461 165.259 41.8443C164.835 42.033 164.344 42.1274 163.787 42.1274ZM169.102 32.983C168.857 32.983 168.649 32.8981 168.479 32.7283C168.309 32.5584 168.224 32.3508 168.224 32.1054C168.224 31.8601 168.309 31.6524 168.479 31.4826C168.649 31.3127 168.857 31.2278 169.102 31.2278C169.338 31.2278 169.536 31.3127 169.697 31.4826C169.866 31.6524 169.951 31.8601 169.951 32.1054C169.951 32.3508 169.866 32.5584 169.697 32.7283C169.536 32.8981 169.338 32.983 169.102 32.983ZM169.725 34.2429V42H168.437V34.2429H169.725ZM175.771 34.1013C176.356 34.1013 176.884 34.2287 177.356 34.4835C177.828 34.7289 178.196 35.1016 178.46 35.6018C178.734 36.1019 178.871 36.7106 178.871 37.4278V42H177.597V37.6118C177.597 36.838 177.403 36.2482 177.016 35.8424C176.629 35.4272 176.101 35.2196 175.431 35.2196C174.751 35.2196 174.209 35.4319 173.803 35.8566C173.407 36.2812 173.208 36.8994 173.208 37.7109V42H171.92V31.525H173.208V35.347C173.463 34.9506 173.812 34.6439 174.256 34.4269C174.709 34.2098 175.214 34.1013 175.771 34.1013ZM181.64 32.983C181.395 32.983 181.187 32.8981 181.017 32.7283C180.847 32.5584 180.762 32.3508 180.762 32.1054C180.762 31.8601 180.847 31.6524 181.017 31.4826C181.187 31.3127 181.395 31.2278 181.64 31.2278C181.876 31.2278 182.074 31.3127 182.235 31.4826C182.404 31.6524 182.489 31.8601 182.489 32.1054C182.489 32.3508 182.404 32.5584 182.235 32.7283C182.074 32.8981 181.876 32.983 181.64 32.983ZM182.263 34.2429V42H180.975V34.2429H182.263ZM185.152 32.983C184.906 32.983 184.699 32.8981 184.529 32.7283C184.369 32.5584 184.288 32.3508 184.288 32.1054C184.288 31.8601 184.369 31.6524 184.529 31.4826C184.699 31.3127 184.906 31.2278 185.152 31.2278C185.397 31.2278 185.6 31.3127 185.761 31.4826C185.93 31.6524 186.015 31.8601 186.015 32.1054C186.015 32.3508 185.93 32.5584 185.761 32.7283C185.6 32.8981 185.397 32.983 185.152 32.983ZM185.789 43.6845C185.789 44.3734 185.614 44.8783 185.265 45.1991C184.916 45.52 184.406 45.6804 183.736 45.6804H182.986V44.5904H183.524C183.883 44.5904 184.133 44.5197 184.274 44.3781C184.425 44.2365 184.501 43.9959 184.501 43.6562V34.2429H185.789V43.6845ZM187.488 38.0931C187.488 37.3004 187.649 36.6068 187.969 36.0123C188.29 35.4083 188.729 34.9412 189.286 34.6109C189.852 34.2806 190.48 34.1155 191.169 34.1155C191.848 34.1155 192.438 34.2617 192.938 34.5543C193.438 34.8468 193.811 35.2149 194.056 35.6584V34.2429H195.359V42H194.056V40.5562C193.801 41.0091 193.419 41.3866 192.91 41.6886C192.409 41.9811 191.824 42.1274 191.154 42.1274C190.465 42.1274 189.843 41.9575 189.286 41.6178C188.729 41.2781 188.29 40.8015 187.969 40.1881C187.649 39.5747 187.488 38.8764 187.488 38.0931ZM194.056 38.1073C194.056 37.5222 193.938 37.0126 193.702 36.5785C193.466 36.1444 193.146 35.8141 192.74 35.5876C192.343 35.3517 191.905 35.2337 191.423 35.2337C190.942 35.2337 190.503 35.347 190.107 35.5735C189.711 35.8 189.394 36.1303 189.158 36.5643C188.923 36.9984 188.805 37.508 188.805 38.0931C188.805 38.6877 188.923 39.2067 189.158 39.6502C189.394 40.0843 189.711 40.4193 190.107 40.6552C190.503 40.8817 190.942 40.995 191.423 40.995C191.905 40.995 192.343 40.8817 192.74 40.6552C193.146 40.4193 193.466 40.0843 193.702 39.6502C193.938 39.2067 194.056 38.6924 194.056 38.1073ZM199.107 35.3045V39.8767C199.107 40.2542 199.187 40.5231 199.347 40.6836C199.508 40.8345 199.786 40.91 200.182 40.91H201.131V42H199.97C199.253 42 198.715 41.8349 198.356 41.5046C197.998 41.1743 197.818 40.6317 197.818 39.8767V35.3045H196.813V34.2429H197.818V32.2894H199.107V34.2429H201.131V35.3045H199.107ZM203.98 35.5027C204.206 35.0592 204.527 34.7147 204.942 34.4694C205.367 34.224 205.881 34.1013 206.485 34.1013V35.4319H206.145C204.702 35.4319 203.98 36.2152 203.98 37.7817V42H202.692V34.2429H203.98V35.5027ZM208.637 32.983C208.392 32.983 208.184 32.8981 208.015 32.7283C207.845 32.5584 207.76 32.3508 207.76 32.1054C207.76 31.8601 207.845 31.6524 208.015 31.4826C208.184 31.3127 208.392 31.2278 208.637 31.2278C208.873 31.2278 209.072 31.3127 209.232 31.4826C209.402 31.6524 209.487 31.8601 209.487 32.1054C209.487 32.3508 209.402 32.5584 209.232 32.7283C209.072 32.8981 208.873 32.983 208.637 32.983ZM209.26 34.2429V42H207.972V34.2429H209.26ZM212.149 32.983C211.904 32.983 211.696 32.8981 211.526 32.7283C211.366 32.5584 211.286 32.3508 211.286 32.1054C211.286 31.8601 211.366 31.6524 211.526 31.4826C211.696 31.3127 211.904 31.2278 212.149 31.2278C212.395 31.2278 212.598 31.3127 212.758 31.4826C212.928 31.6524 213.013 31.8601 213.013 32.1054C213.013 32.3508 212.928 32.5584 212.758 32.7283C212.598 32.8981 212.395 32.983 212.149 32.983ZM212.786 43.6845C212.786 44.3734 212.612 44.8783 212.263 45.1991C211.913 45.52 211.404 45.6804 210.734 45.6804H209.984V44.5904H210.521C210.88 44.5904 211.13 44.5197 211.272 44.3781C211.423 44.2365 211.498 43.9959 211.498 43.6562V34.2429H212.786V43.6845ZM221.846 34.2429V42H220.558V40.8534C220.313 41.2498 219.968 41.5612 219.525 41.7877C219.091 42.0047 218.609 42.1132 218.081 42.1132C217.477 42.1132 216.934 41.9906 216.453 41.7452C215.972 41.4904 215.59 41.1129 215.307 40.6128C215.033 40.1126 214.896 39.5039 214.896 38.7867V34.2429H216.17V38.6169C216.17 39.3813 216.364 39.9711 216.75 40.3863C217.137 40.7921 217.666 40.995 218.336 40.995C219.025 40.995 219.567 40.7826 219.964 40.358C220.36 39.9333 220.558 39.3152 220.558 38.5036V34.2429H221.846ZM91.142 77.2064C89.7068 77.2064 88.4092 76.9607 87.2493 76.4692C86.109 75.9777 85.2046 75.2699 84.5362 74.3459C83.8677 73.4218 83.5237 72.3307 83.504 71.0725H87.9275C87.9865 71.9178 88.2814 72.5863 88.8123 73.0778C89.3627 73.5693 90.1098 73.815 91.0535 73.815C92.0169 73.815 92.7738 73.589 93.3243 73.1368C93.8748 72.6649 94.15 72.0555 94.15 71.3084C94.15 70.6989 93.9632 70.1976 93.5897 69.8044C93.2161 69.4112 92.7443 69.1064 92.1742 68.8902C91.6237 68.6542 90.8569 68.3987 89.8739 68.1234C88.537 67.7302 87.4459 67.3468 86.6005 66.9733C85.7748 66.5801 85.0572 66.0001 84.4477 65.2334C83.8579 64.447 83.563 63.405 83.563 62.1074C83.563 60.8885 83.8677 59.8268 84.4772 58.9225C85.0867 58.0181 85.9419 57.33 87.0428 56.8581C88.1438 56.3666 89.4021 56.1209 90.8176 56.1209C92.9409 56.1209 94.6612 56.6419 95.9784 57.6839C97.3153 58.7062 98.0526 60.1414 98.1902 61.9894H93.6487C93.6093 61.2817 93.3046 60.7017 92.7345 60.2495C92.184 59.7777 91.4467 59.5417 90.5227 59.5417C89.7166 59.5417 89.0678 59.7482 88.5763 60.161C88.1045 60.5739 87.8686 61.1735 87.8686 61.9599C87.8686 62.5104 88.0455 62.9725 88.3994 63.346C88.7729 63.6999 89.2251 63.9948 89.7559 64.2307C90.3064 64.447 91.0732 64.7025 92.0562 64.9975C93.3931 65.3907 94.4842 65.7839 95.3296 66.1771C96.175 66.5703 96.9024 67.1601 97.5119 67.9465C98.1214 68.7329 98.4261 69.765 98.4261 71.043C98.4261 72.1439 98.141 73.1663 97.5709 74.11C97.0007 75.0536 96.1652 75.8106 95.0642 76.3807C93.9632 76.9312 92.6558 77.2064 91.142 77.2064ZM108.818 73.1958L112.946 60.6624H117.34L111.295 77H106.282L100.266 60.6624H104.689L108.818 73.1958ZM134.847 68.4773C134.847 69.0671 134.808 69.5979 134.729 70.0698H122.785C122.884 71.2494 123.296 72.1734 124.024 72.8419C124.751 73.5103 125.646 73.8445 126.708 73.8445C128.241 73.8445 129.332 73.1859 129.981 71.8687H134.434C133.962 73.4415 133.058 74.7391 131.721 75.7614C130.384 76.7641 128.742 77.2654 126.796 77.2654C125.223 77.2654 123.808 76.9214 122.549 76.2333C121.311 75.5255 120.338 74.5326 119.63 73.2547C118.942 71.9768 118.598 70.5023 118.598 68.8312C118.598 67.1404 118.942 65.6561 119.63 64.3782C120.318 63.1002 121.281 62.1172 122.52 61.4291C123.758 60.741 125.184 60.397 126.796 60.397C128.349 60.397 129.735 60.7312 130.954 61.3996C132.193 62.0681 133.146 63.0216 133.815 64.2602C134.503 65.4791 134.847 66.8848 134.847 68.4773ZM130.571 67.2977C130.551 66.236 130.168 65.3907 129.421 64.7615C128.674 64.1127 127.759 63.7883 126.678 63.7883C125.656 63.7883 124.791 64.1029 124.083 64.732C123.395 65.3415 122.972 66.1967 122.815 67.2977H130.571ZM142.667 64.0538V71.9572C142.667 72.5076 142.795 72.9107 143.051 73.1663C143.326 73.4022 143.778 73.5201 144.407 73.5201H146.324V77H143.729C140.249 77 138.509 75.3092 138.509 71.9277V64.0538H136.563V60.6624H138.509V56.6222H142.667V60.6624H146.324V64.0538H142.667ZM151.387 58.716C150.66 58.716 150.051 58.4899 149.559 58.0377C149.087 57.5659 148.851 56.9859 148.851 56.2978C148.851 55.6097 149.087 55.0396 149.559 54.5874C150.051 54.1155 150.66 53.8796 151.387 53.8796C152.115 53.8796 152.714 54.1155 153.186 54.5874C153.678 55.0396 153.924 55.6097 153.924 56.2978C153.924 56.9859 153.678 57.5659 153.186 58.0377C152.714 58.4899 152.115 58.716 151.387 58.716ZM153.422 60.6624V77H149.294V60.6624H153.422ZM168.657 56.4158V77H164.528V56.4158H168.657ZM179.548 73.1958L183.677 60.6624H188.071L182.026 77H177.012L170.996 60.6624H175.42L179.548 73.1958ZM189.328 68.7722C189.328 67.1208 189.653 65.6561 190.301 64.3782C190.97 63.1002 191.864 62.1172 192.985 61.4291C194.125 60.741 195.393 60.397 196.789 60.397C198.008 60.397 199.07 60.6427 199.974 61.1342C200.898 61.6257 201.636 62.245 202.186 62.9921V60.6624H206.344V77H202.186V74.6113C201.655 75.378 200.918 76.017 199.974 76.5282C199.05 77.0197 197.979 77.2654 196.76 77.2654C195.384 77.2654 194.125 76.9115 192.985 76.2038C191.864 75.496 190.97 74.5032 190.301 73.2252C189.653 71.9277 189.328 70.4433 189.328 68.7722ZM202.186 68.8312C202.186 67.8285 201.989 66.9733 201.596 66.2655C201.203 65.5381 200.672 64.9876 200.004 64.6141C199.335 64.2209 198.618 64.0243 197.851 64.0243C197.084 64.0243 196.376 64.211 195.728 64.5846C195.079 64.9581 194.548 65.5086 194.135 66.236C193.742 66.9438 193.545 67.7892 193.545 68.7722C193.545 69.7552 193.742 70.6203 194.135 71.3674C194.548 72.0948 195.079 72.6551 195.728 73.0483C196.396 73.4415 197.104 73.6381 197.851 73.6381C198.618 73.6381 199.335 73.4513 200.004 73.0778C200.672 72.6846 201.203 72.1341 201.596 71.4263C201.989 70.6989 202.186 69.8339 202.186 68.8312ZM219.43 60.4265C221.376 60.4265 222.949 61.0458 224.149 62.2843C225.348 63.5033 225.947 65.2137 225.947 67.4157V77H221.819V67.976C221.819 66.6784 221.494 65.6856 220.846 64.9975C220.197 64.2897 219.312 63.9358 218.191 63.9358C217.051 63.9358 216.147 64.2897 215.478 64.9975C214.83 65.6856 214.505 66.6784 214.505 67.976V77H210.377V60.6624H214.505V62.6972C215.056 61.9894 215.754 61.439 216.599 61.0458C217.464 60.6329 218.408 60.4265 219.43 60.4265ZM88.2519 107.52H97.5119V111H83.4745V107.815L92.6755 93.8956H83.4745V90.4158H97.5119V93.6007L88.2519 107.52ZM99.9647 102.772C99.9647 101.121 100.289 99.6561 100.938 98.3782C101.606 97.1002 102.501 96.1172 103.621 95.4291C104.762 94.741 106.03 94.397 107.426 94.397C108.645 94.397 109.706 94.6427 110.611 95.1342C111.535 95.6257 112.272 96.245 112.822 96.9921V94.6624H116.981V111H112.822V108.611C112.292 109.378 111.554 110.017 110.611 110.528C109.687 111.02 108.615 111.265 107.396 111.265C106.02 111.265 104.762 110.912 103.621 110.204C102.501 109.496 101.606 108.503 100.938 107.225C100.289 105.928 99.9647 104.443 99.9647 102.772ZM112.822 102.831C112.822 101.829 112.626 100.973 112.233 100.266C111.839 99.5381 111.309 98.9876 110.64 98.6141C109.972 98.2209 109.254 98.0243 108.487 98.0243C107.721 98.0243 107.013 98.211 106.364 98.5846C105.715 98.9581 105.184 99.5086 104.772 100.236C104.378 100.944 104.182 101.789 104.182 102.772C104.182 103.755 104.378 104.62 104.772 105.367C105.184 106.095 105.715 106.655 106.364 107.048C107.032 107.442 107.74 107.638 108.487 107.638C109.254 107.638 109.972 107.451 110.64 107.078C111.309 106.685 111.839 106.134 112.233 105.426C112.626 104.699 112.822 103.834 112.822 102.831ZM127.412 94.397C128.631 94.397 129.703 94.6427 130.627 95.1342C131.551 95.6061 132.278 96.2254 132.809 96.9921V94.6624H136.967V111.118C136.967 112.632 136.662 113.979 136.053 115.158C135.443 116.357 134.529 117.301 133.31 117.989C132.091 118.697 130.617 119.051 128.887 119.051C126.567 119.051 124.66 118.51 123.166 117.429C121.691 116.348 120.856 114.873 120.659 113.005H124.758C124.974 113.752 125.436 114.342 126.144 114.775C126.872 115.227 127.747 115.453 128.769 115.453C129.968 115.453 130.941 115.089 131.688 114.362C132.435 113.654 132.809 112.573 132.809 111.118V108.582C132.278 109.349 131.541 109.987 130.597 110.499C129.673 111.01 128.612 111.265 127.412 111.265C126.036 111.265 124.778 110.912 123.638 110.204C122.497 109.496 121.593 108.503 120.924 107.225C120.276 105.928 119.951 104.443 119.951 102.772C119.951 101.121 120.276 99.6561 120.924 98.3782C121.593 97.1002 122.487 96.1172 123.608 95.4291C124.748 94.741 126.016 94.397 127.412 94.397ZM132.809 102.831C132.809 101.829 132.612 100.973 132.219 100.266C131.826 99.5381 131.295 98.9876 130.627 98.6141C129.958 98.2209 129.241 98.0243 128.474 98.0243C127.707 98.0243 126.999 98.211 126.351 98.5846C125.702 98.9581 125.171 99.5086 124.758 100.236C124.365 100.944 124.168 101.789 124.168 102.772C124.168 103.755 124.365 104.62 124.758 105.367C125.171 106.095 125.702 106.655 126.351 107.048C127.019 107.442 127.727 107.638 128.474 107.638C129.241 107.638 129.958 107.451 130.627 107.078C131.295 106.685 131.826 106.134 132.219 105.426C132.612 104.699 132.809 103.834 132.809 102.831ZM145.128 97.1985C145.659 96.3335 146.347 95.6552 147.192 95.1637C148.057 94.6722 149.04 94.4265 150.141 94.4265V98.7615H149.05C147.753 98.7615 146.77 99.0663 146.101 99.6757C145.453 100.285 145.128 101.347 145.128 102.861V111H140.999V94.6624H145.128V97.1985ZM168.11 102.477C168.11 103.067 168.07 103.598 167.992 104.07H156.048C156.147 105.249 156.559 106.173 157.287 106.842C158.014 107.51 158.909 107.845 159.97 107.845C161.504 107.845 162.595 107.186 163.244 105.869H167.697C167.225 107.442 166.321 108.739 164.984 109.761C163.647 110.764 162.005 111.265 160.059 111.265C158.486 111.265 157.071 110.921 155.812 110.233C154.574 109.525 153.601 108.533 152.893 107.255C152.205 105.977 151.861 104.502 151.861 102.831C151.861 101.14 152.205 99.6561 152.893 98.3782C153.581 97.1002 154.544 96.1172 155.783 95.4291C157.021 94.741 158.447 94.397 160.059 94.397C161.612 94.397 162.998 94.7312 164.217 95.3996C165.456 96.0681 166.409 97.0216 167.078 98.2602C167.766 99.4791 168.11 100.885 168.11 102.477ZM163.834 101.298C163.814 100.236 163.431 99.3907 162.684 98.7615C161.937 98.1127 161.022 97.7883 159.941 97.7883C158.919 97.7883 158.054 98.1029 157.346 98.732C156.658 99.3415 156.235 100.197 156.078 101.298H163.834ZM175.252 97.0511C175.783 96.2647 176.51 95.6257 177.434 95.1342C178.378 94.6427 179.449 94.397 180.649 94.397C182.045 94.397 183.303 94.741 184.423 95.4291C185.564 96.1172 186.458 97.1002 187.107 98.3782C187.776 99.6364 188.11 101.101 188.11 102.772C188.11 104.443 187.776 105.928 187.107 107.225C186.458 108.503 185.564 109.496 184.423 110.204C183.303 110.912 182.045 111.265 180.649 111.265C179.43 111.265 178.358 111.029 177.434 110.558C176.53 110.066 175.802 109.437 175.252 108.67V111H171.123V89.1772H175.252V97.0511ZM183.893 102.772C183.893 101.789 183.686 100.944 183.273 100.236C182.88 99.5086 182.349 98.9581 181.681 98.5846C181.032 98.211 180.324 98.0243 179.558 98.0243C178.81 98.0243 178.103 98.2209 177.434 98.6141C176.785 98.9876 176.255 99.5381 175.842 100.266C175.449 100.993 175.252 101.848 175.252 102.831C175.252 103.814 175.449 104.669 175.842 105.397C176.255 106.124 176.785 106.685 177.434 107.078C178.103 107.451 178.81 107.638 179.558 107.638C180.324 107.638 181.032 107.442 181.681 107.048C182.349 106.655 182.88 106.095 183.273 105.367C183.686 104.64 183.893 103.775 183.893 102.772Z" fill="#004A8F"/>
<path d="M39.9509 112.411C39.9789 112.078 40.0165 111.626 39.971 112.107C39.9653 112.21 39.9588 112.312 39.9509 112.411ZM37.3488 112.292C37.4533 111.15 37.3827 111.898 37.3443 112.292L37.3488 112.292ZM37.3406 112.328L37.3457 112.325C37.3468 112.314 37.3476 112.303 37.3488 112.292L37.3443 112.292C37.3431 112.304 37.3417 112.316 37.3406 112.328ZM39.9297 112.553L39.9388 112.554C39.9402 112.539 39.9416 112.522 39.943 112.505L39.9342 112.504C39.9328 112.52 39.9314 112.536 39.9297 112.553ZM67.4395 141.524C66.7924 135.818 64.5234 132.245 61.3092 130.165C58.0387 128.048 53.7218 127.405 49.09 127.604C48.3239 127.637 47.5999 127.625 46.9231 127.565C44.1514 127.317 41.8076 126.306 40.0891 124.368C38.415 122.481 37.3963 119.759 37.2366 116.061C37.1863 114.897 37.2174 113.654 37.3358 112.33L37.3366 112.33C37.3375 112.318 37.3386 112.305 37.3397 112.291C37.4742 110.712 37.301 108.33 37.1829 106.705C37.1264 105.93 37.0823 105.319 37.0877 104.943C37.0625 104.738 35.8519 103.125 34.9818 101.965C34.3225 101.086 33.8059 100.398 33.7474 99.9423H33.7468L33.7463 99.9372V99.9271C33.6281 98.9221 34.1289 97.6899 34.6093 96.5077C34.9023 95.7862 35.1858 95.0889 35.2115 94.7383C35.2361 94.4029 34.288 93.7063 33.3283 93.0011C32.5579 92.4351 31.7819 91.8649 31.1989 91.1933L31.1947 91.1885L31.1896 91.1835C29.5859 89.322 30.2774 84.9392 30.666 82.4774C30.7448 81.9775 30.8095 81.5676 30.8316 81.3307C31.3289 76.0062 29.4435 74.9366 27.1762 74.7255C26.537 74.6659 25.7584 74.6619 24.9906 74.6586C21.5704 74.6425 18.3202 74.6269 17.709 70.1657L17.7087 70.1628C17.3781 67.7205 20.2749 60.3748 23.3159 52.6635C26.7085 44.0613 30.289 34.9823 29.5825 33.2166L29.5774 33.2065L29.5771 33.2062L29.5754 33.2067C26.1444 24.6269 28.5798 15.1188 30.538 7.47415C31.2639 4.63969 31.9218 2.07115 32.1592 0L34.7427 0.294709C34.4833 2.56008 33.807 5.2006 33.0607 8.11438C31.1961 15.3946 28.8766 24.4496 31.9967 32.2515V32.2566L31.9987 32.2613L31.9973 32.2619C33.0748 35.0021 29.3072 44.5556 25.7372 53.608C22.8208 61.0028 20.0429 68.0474 20.2823 69.817L20.2826 69.8198C20.5861 72.0361 22.7372 72.0463 25.0008 72.057C25.7714 72.0607 26.5528 72.0643 27.4102 72.1442C31.0636 72.4849 34.1184 74.0338 33.4151 81.5642C33.3851 81.8846 33.315 82.33 33.2291 82.8734C32.9078 84.9104 32.3358 88.5364 33.163 89.4965L33.1627 89.4968C33.5482 89.9405 34.2086 90.4258 34.8642 90.9074C36.4134 92.0458 37.9439 93.1702 37.8153 94.9204C37.7611 95.658 37.3968 96.5546 37.0198 97.4824C36.6652 98.3553 36.2958 99.2648 36.3289 99.6216H36.3297L36.3303 99.6267V99.6318C36.3577 99.8585 36.6338 99.8463 37.0566 100.41C38.1482 101.865 39.6714 103.895 39.6921 104.897C39.6926 104.921 39.6926 104.946 39.6921 104.969C39.6875 105.158 39.7311 105.756 39.7867 106.522C39.902 108.108 40.0673 110.38 39.9713 112.106C39.9625 112.2 39.9503 112.33 39.9345 112.503L39.9433 112.504C39.9458 112.474 39.9484 112.443 39.9512 112.41C39.9489 112.442 39.9461 112.473 39.9436 112.504C39.9421 112.522 39.9407 112.538 39.9393 112.553H39.9396C39.8277 113.804 39.7966 114.933 39.8404 115.949C39.9732 119.022 40.7552 121.211 42.0319 122.651C43.2649 124.041 45.0232 124.773 47.1469 124.963C47.7505 125.017 48.3615 125.029 48.9784 125.003C54.0959 124.782 58.9311 125.535 62.7233 127.99C66.5717 130.481 69.2769 134.658 70.0233 141.239L67.4395 141.524Z" fill="#E4F5FD"/>
<path d="M20.0223 113.737V113.737V113.737ZM21.2126 121.379C21.2177 121.317 21.2217 121.268 21.2191 121.29C21.2171 121.32 21.2149 121.35 21.2126 121.379ZM21.2121 121.384C21.2123 121.382 21.2123 121.38 21.2126 121.379C21.2123 121.38 21.2123 121.382 21.2121 121.384ZM21.2112 121.395C21.2115 121.391 21.2118 121.387 21.2121 121.384C21.2118 121.388 21.2118 121.391 21.2112 121.395ZM21.2112 121.396C21.2112 121.395 21.2112 121.395 21.2112 121.395C21.2112 121.395 21.2112 121.395 21.2112 121.396ZM21.2104 121.406C21.2106 121.402 21.2109 121.399 21.2112 121.396C21.2109 121.399 21.2106 121.402 21.2104 121.406ZM21.2095 121.417C21.2098 121.413 21.2101 121.41 21.2104 121.406C21.2101 121.41 21.2098 121.413 21.2095 121.417ZM21.2087 121.428C21.209 121.425 21.2092 121.421 21.2095 121.417C21.2092 121.421 21.209 121.424 21.2087 121.428ZM21.2075 121.439C21.2078 121.435 21.2081 121.432 21.2084 121.428C21.2081 121.432 21.2081 121.436 21.2075 121.439ZM21.2067 121.451C21.207 121.447 21.2073 121.443 21.2075 121.439C21.2073 121.443 21.207 121.447 21.2067 121.451ZM21.2058 121.462C21.2061 121.458 21.2064 121.454 21.2067 121.451C21.2064 121.454 21.2061 121.458 21.2058 121.462ZM21.2047 121.472C21.205 121.469 21.2053 121.465 21.2056 121.462C21.2056 121.465 21.2053 121.469 21.2047 121.472ZM20.2851 121.403C20.3154 121.07 20.297 121.269 20.2837 121.403H20.2851ZM20.2798 121.445L20.2815 121.444C20.2829 121.429 20.284 121.416 20.2851 121.403H20.2837C20.2826 121.418 20.2812 121.432 20.2798 121.445ZM21.1971 121.524L21.2005 121.525C21.2016 121.512 21.2027 121.496 21.2044 121.478C21.2047 121.476 21.2047 121.474 21.205 121.472C21.2047 121.474 21.2047 121.476 21.2044 121.478L21.2013 121.478C21.1999 121.493 21.1985 121.508 21.1971 121.524ZM51.3226 151.386C50.6214 145.204 48.1335 141.315 44.6033 139.029C41.0533 136.731 36.425 136.031 31.483 136.244C30.7434 136.276 30.035 136.263 29.3613 136.203C26.7218 135.968 24.5026 135.019 22.8943 133.206C21.3019 131.41 20.3312 128.783 20.1758 125.181C20.126 124.03 20.158 122.787 20.2781 121.446L20.2784 121.446C20.2792 121.434 20.2803 121.42 20.2818 121.403C20.4259 119.713 20.2442 117.212 20.1201 115.506C20.061 114.696 20.0153 114.062 20.0223 113.739C20.0223 113.739 20.0223 113.739 20.0223 113.739C20.0223 113.738 20.0223 113.738 20.0223 113.737C20.0223 113.738 20.0223 113.738 20.0223 113.739C20.0223 113.739 20.0223 113.739 20.0223 113.739V113.739V113.737V113.737C20.013 113.275 18.6481 111.455 17.6703 110.152C17.0701 109.352 16.6001 108.726 16.569 108.486H16.5687L16.5682 108.481V108.477C16.4724 107.662 16.9457 106.498 17.3998 105.38C17.7305 104.566 18.0501 103.779 18.0863 103.287C18.1467 102.461 16.9717 101.598 15.7823 100.724C15.0266 100.169 14.265 99.6092 13.7306 98.9935L13.7264 98.9887H13.7247C12.3329 97.3738 13.0061 93.1081 13.3842 90.712C13.4678 90.1816 13.5365 89.7469 13.5619 89.4742C14.1446 83.2353 11.8036 81.9696 8.99604 81.7079C8.26327 81.6396 7.45928 81.6359 6.66576 81.6319C3.52951 81.6173 0.549267 81.6029 0.0227922 77.7612L0.0225096 77.7584C-0.28778 75.467 2.66025 67.9918 5.75467 60.145C9.31565 51.1157 13.0739 41.5859 12.2151 39.4394L12.2131 39.4357L12.2117 39.4323L12.2111 39.4326C8.77731 30.8457 11.25 21.1917 13.2381 13.4302C13.9937 10.4794 14.6787 7.80557 14.9308 5.604L15.8461 5.70845C15.5862 7.97974 14.8946 10.6787 14.1319 13.6574C12.1769 21.2902 9.74519 30.7836 13.0688 39.0947V39.0964L13.0708 39.1012L13.0705 39.1015C14.0607 41.5944 10.2361 51.2916 6.61235 60.4801C3.56201 68.2148 0.656088 75.5831 0.934161 77.6362L0.934444 77.639C1.35184 80.6852 3.94267 80.6976 6.66915 80.7103C7.46296 80.7139 8.2675 80.7179 9.07855 80.7933C12.3776 81.1007 15.1326 82.5364 14.477 89.5566C14.4487 89.8587 14.3781 90.3061 14.2922 90.8521C13.9381 93.0965 13.3076 97.0921 14.4236 98.3872L14.4224 98.388L14.4258 98.392C14.8901 98.9269 15.6107 99.4562 16.3263 99.9818C17.7248 101.009 19.1062 102.024 19.0087 103.351C18.9623 103.98 18.6139 104.838 18.2536 105.725C17.8438 106.734 17.4165 107.785 17.4829 108.369H17.4832L17.4838 108.374V108.375C17.4841 108.378 17.8879 108.912 18.405 109.601C19.4583 111.005 20.9278 112.963 20.9444 113.721C20.9447 113.733 20.9447 113.745 20.9444 113.757C20.9382 114.014 20.9837 114.64 21.0419 115.441C21.164 117.116 21.3406 119.546 21.2186 121.29C21.2166 121.307 21.2112 121.362 21.2008 121.478L21.2039 121.478C21.1974 121.556 21.1962 121.57 21.1979 121.551C21.0823 122.855 21.051 124.05 21.0979 125.14C21.244 128.522 22.1305 130.96 23.5822 132.597C25.0183 134.216 27.0301 135.066 29.4401 135.281C30.0875 135.338 30.7561 135.351 31.4428 135.322C36.557 135.101 41.3687 135.84 45.1038 138.258C48.8586 140.689 51.5012 144.793 52.2373 151.284L51.3226 151.386Z" fill="#C41C62"/>
<path d="M29.0821 119.739C29.0897 119.647 29.0999 119.525 29.0939 119.585C29.0903 119.637 29.0863 119.688 29.0821 119.739ZM29.0818 119.741C29.0818 119.74 29.0818 119.74 29.0818 119.739C29.0821 119.74 29.0821 119.74 29.0818 119.741ZM29.0812 119.751C29.0815 119.747 29.0818 119.744 29.0821 119.741C29.0818 119.744 29.0812 119.747 29.0812 119.751ZM29.0804 119.76C29.0807 119.757 29.0809 119.754 29.0812 119.751C29.0809 119.754 29.0807 119.757 29.0804 119.76ZM28.1648 119.69C28.1959 119.348 28.1758 119.562 28.1634 119.69H28.1648ZM28.1591 119.732L28.1611 119.731C28.1625 119.716 28.1636 119.703 28.1648 119.69H28.1634C28.1619 119.706 28.1605 119.72 28.1591 119.732ZM29.0728 119.811L29.0761 119.811C29.077 119.8 29.0784 119.783 29.0801 119.765C29.0804 119.763 29.0804 119.762 29.0804 119.76C29.0801 119.761 29.0801 119.763 29.0801 119.765L29.0773 119.765C29.0756 119.779 29.0742 119.794 29.0728 119.811ZM58.2549 148.762C57.5756 142.772 55.1656 139.004 51.7459 136.791C48.3067 134.564 43.8222 133.886 39.0331 134.092C38.3153 134.123 37.6278 134.111 36.9747 134.053C34.413 133.824 32.2584 132.903 30.6971 131.142C29.1516 129.4 28.2094 126.85 28.0582 123.355C28.0099 122.239 28.041 121.033 28.1574 119.733L28.1577 119.732C28.1586 119.721 28.1597 119.708 28.1611 119.69C28.3007 118.052 28.1244 115.629 28.0043 113.976C27.9472 113.191 27.9025 112.576 27.9096 112.262C27.9096 112.262 27.9096 112.261 27.9096 112.261C27.8994 111.814 26.5786 110.054 25.6322 108.792C25.0489 108.015 24.5925 107.407 24.562 107.171H24.5617L24.5611 107.165V107.162C24.4681 106.369 24.9274 105.238 25.3682 104.153C25.6884 103.365 25.9981 102.603 26.0329 102.127C26.0911 101.334 24.9548 100.499 23.804 99.6535C23.0707 99.1149 22.332 98.572 21.8129 97.9741L21.8086 97.9693L21.8067 97.9676C20.4544 96.3978 21.1072 92.2601 21.474 89.9357C21.5552 89.4216 21.6216 89.0008 21.6461 88.7365C22.2102 82.6981 19.9461 81.4732 17.2303 81.2203C16.5204 81.1543 15.741 81.1503 14.9724 81.1469C11.9263 81.1325 9.03195 81.1187 8.52045 77.384L8.52017 77.3812C8.21892 75.1562 11.0774 67.9082 14.0783 60.2993C17.5296 51.5478 21.1725 42.3108 20.3414 40.2343L20.3397 40.2306L20.3383 40.2272L20.3377 40.2275C17.0076 31.8991 19.4052 22.5379 21.333 15.0112C22.0655 12.1511 22.7293 9.55939 22.9738 7.42529L23.8852 7.52918C23.6331 9.73159 22.9625 12.3487 22.2229 15.2371C20.3281 22.635 17.9713 31.8368 21.1917 39.8907V39.8924L21.1937 39.8972L21.1934 39.8975C22.1548 42.3187 18.4463 51.7226 14.9325 60.6325C11.976 68.1295 9.1594 75.2717 9.42843 77.259L9.42871 77.2618C9.83198 80.2046 12.3389 80.2165 14.9766 80.2289C15.7464 80.2326 16.5269 80.2363 17.3137 80.3097C20.5183 80.6083 23.1948 82.0023 22.5581 88.8187C22.5307 89.1117 22.4623 89.5456 22.3786 90.0751C22.0356 92.2496 21.4249 96.1206 22.5033 97.3723V97.3726L22.5058 97.3754C22.9551 97.8928 23.6531 98.4058 24.3463 98.915C25.7048 99.9132 27.0468 100.899 26.9519 102.192C26.9069 102.804 26.5687 103.636 26.2188 104.497C25.8221 105.473 25.4086 106.491 25.4725 107.054H25.4728L25.4733 107.059V107.061C25.4739 107.066 25.8642 107.577 26.3644 108.244C27.3868 109.606 28.8136 111.508 28.8286 112.244C28.8289 112.256 28.8289 112.268 28.8286 112.28C28.8227 112.528 28.8667 113.135 28.9233 113.911C29.0414 115.536 29.2129 117.893 29.0939 119.585C29.0914 119.61 29.0863 119.665 29.077 119.765L29.0798 119.765C29.0764 119.803 29.075 119.822 29.0744 119.828C29.0747 119.825 29.0747 119.823 29.075 119.82C29.0744 119.827 29.0742 119.83 29.0742 119.829C28.9614 121.096 28.9306 122.257 28.9764 123.315C29.1177 126.591 29.9765 128.952 31.3818 130.537C32.7719 132.104 34.7198 132.927 37.0532 133.135C37.6806 133.191 38.3283 133.203 38.9933 133.175C43.9534 132.961 48.621 133.678 52.2444 136.024C55.8876 138.382 58.4516 142.363 59.166 148.661L58.2549 148.762Z" fill="#3C8476"/>
<path d="M40.0258 124.144C40.0258 124.143 40.0261 124.141 40.0261 124.14C40.0312 124.081 40.0357 124.021 40.04 123.961C40.0467 123.893 40.0343 124.044 40.0261 124.14L40.0258 124.144ZM39.1068 124.069C39.1388 123.719 39.1181 123.938 39.1051 124.069H39.1068ZM39.1012 124.11L39.1029 124.109C39.1043 124.095 39.1057 124.082 39.1068 124.069H39.1051C39.1037 124.084 39.1023 124.098 39.1012 124.11ZM40.0185 124.19L40.0219 124.19C40.0227 124.179 40.0244 124.163 40.0258 124.144L40.0227 124.144C40.0216 124.159 40.0199 124.174 40.0185 124.19ZM69.1967 153.141C68.5173 147.152 66.1077 143.385 62.6885 141.171C59.2496 138.945 54.7657 138.267 49.9768 138.473C49.2591 138.504 48.5715 138.492 47.9181 138.434C45.3558 138.205 43.2008 137.284 41.6392 135.523C40.0934 133.78 39.1509 131.23 39 127.734C38.9517 126.618 38.9828 125.411 39.0992 124.111L39.0995 124.111C39.1003 124.1 39.1015 124.086 39.1029 124.069C39.2425 122.431 39.0661 120.008 38.946 118.355C38.8889 117.57 38.8443 116.955 38.8514 116.641C38.8514 116.64 38.8514 116.64 38.8514 116.64C38.8409 116.194 37.5206 114.434 36.5742 113.172C35.9909 112.395 35.5343 111.786 35.5037 111.55H35.5035L35.5029 111.544V111.541C35.4096 110.747 35.8691 109.616 36.31 108.531C36.6302 107.743 36.9396 106.982 36.9746 106.506C37.0329 105.714 35.8968 104.879 34.7467 104.034C34.0133 103.495 33.2743 102.952 32.7552 102.354L32.751 102.349L32.7493 102.347C31.3962 100.777 32.0493 96.6385 32.4161 94.3138C32.4972 93.7998 32.5636 93.3786 32.5882 93.115C33.152 87.0785 30.889 85.8539 28.1743 85.601C27.465 85.535 26.6854 85.5313 25.9164 85.5276C22.8698 85.5132 19.9743 85.4994 19.4622 81.7627L19.4619 81.7599C19.1607 79.5346 22.0191 72.2863 25.02 64.6772C28.4714 55.926 32.114 46.6895 31.2832 44.6135L31.2812 44.6099L31.2798 44.6065L31.2792 44.6068C27.9486 36.2778 30.3464 26.916 32.2742 19.3894C33.0067 16.5292 33.6708 13.9372 33.915 11.8037L34.8303 11.9082C34.578 14.1111 33.9076 16.7282 33.1681 19.6163C31.2733 27.014 28.9164 36.2155 32.1369 44.2686V44.2703L32.1389 44.2751L32.1383 44.2754C33.1 46.6974 29.3915 56.1013 25.8774 65.012C22.9209 72.5087 20.1043 79.6506 20.3733 81.6377L20.3736 81.6405C20.7766 84.5814 23.2823 84.5935 25.9195 84.6059C26.689 84.6096 27.4693 84.6133 28.2566 84.6867C31.4623 84.9853 34.1396 86.3796 33.503 93.198C33.4756 93.4913 33.4072 93.9251 33.3235 94.4547C32.9804 96.6286 32.3698 100.499 33.4479 101.75L33.4476 101.75L33.4501 101.753C33.8992 102.271 34.5972 102.783 35.2904 103.293C36.6494 104.291 37.9917 105.277 37.8967 106.571C37.8518 107.183 37.5136 108.016 37.1637 108.877C36.7669 109.853 36.3538 110.871 36.4174 111.433H36.4176L36.4182 111.438V111.44C36.4191 111.446 36.8088 111.955 37.309 112.621C38.3317 113.985 39.7585 115.886 39.7737 116.623C39.774 116.635 39.774 116.647 39.7737 116.659C39.7678 116.907 39.8119 117.514 39.8684 118.29C39.9865 119.915 40.1578 122.269 40.0397 123.961C40.0371 123.986 40.0318 124.043 40.0224 124.144L40.0255 124.144C40.0236 124.165 40.0224 124.18 40.0216 124.191C40.0213 124.192 40.0213 124.194 40.0213 124.196C40.021 124.198 40.021 124.2 40.0207 124.201C40.0205 124.205 40.0202 124.207 40.0202 124.208C40.0202 124.208 40.0202 124.207 40.0202 124.207C40.0199 124.21 40.0199 124.21 40.0199 124.21C39.9074 125.476 39.8766 126.636 39.9224 127.694C40.064 130.969 40.9222 133.331 42.3273 134.915C43.7168 136.482 45.6644 137.304 47.9973 137.512C48.6243 137.568 49.2721 137.581 49.937 137.552C54.8977 137.339 59.5653 138.056 63.1893 140.402C66.8331 142.76 69.3973 146.742 70.1117 153.04L69.1967 153.141Z" fill="#00A2DF"/>
<path d="M53.6565 154C52.9449 147.726 50.4163 143.776 46.8279 141.453C43.2491 139.137 38.5987 138.43 33.6394 138.644C32.9126 138.675 32.2078 138.662 31.5282 138.601C28.919 138.368 26.7325 137.439 25.1602 135.667C23.6101 133.919 22.6649 131.35 22.512 127.815C22.4631 126.682 22.495 125.452 22.6143 124.12V124.119C22.6177 124.08 22.6182 124.077 22.6182 124.076C22.7643 122.364 22.5812 119.848 22.4566 118.132C22.3978 117.323 22.3517 116.691 22.3591 116.391C22.3591 116.387 22.3591 116.383 22.3591 116.38C22.3483 115.825 20.9512 113.963 19.95 112.628C19.3749 111.861 18.9244 111.261 18.9032 111.096H18.9029L18.9024 111.091V111.09C18.8156 110.351 19.2743 109.222 19.7146 108.138C20.0548 107.301 20.3837 106.492 20.423 105.955C20.4951 104.975 19.2627 104.069 18.0153 103.153C17.2684 102.604 16.5161 102.051 15.9993 101.456L15.995 101.451V101.45C14.6861 99.9314 15.3454 95.7527 15.7158 93.4055C15.7989 92.8784 15.867 92.4465 15.8947 92.149C16.4978 85.6914 14.0723 84.3807 11.1627 84.1097C10.4084 84.0394 9.61207 84.0357 8.82617 84.0318C5.7634 84.0174 2.85324 84.0036 2.35502 80.3685L2.35474 80.3657C2.05519 78.1543 4.99022 70.7123 8.07108 62.9002C11.6524 53.819 15.4327 44.2339 14.5295 41.977V41.9761L14.5278 41.9719H14.5275C11.1282 33.4716 13.5876 23.8704 15.5646 16.1513C16.3231 13.1895 17.0107 10.5055 17.2647 8.28613L17.8313 8.32114C17.5733 10.5746 16.8844 13.2637 16.1245 16.2311C14.1587 23.9063 11.7134 33.4527 15.0715 41.8502V41.8511L15.0732 41.855H15.0735C16.0247 44.2316 12.2199 53.8791 8.61507 63.0196C5.55089 70.7891 2.63225 78.1904 2.92106 80.3236L2.92134 80.3265C3.367 83.5793 6.02791 83.592 8.82787 83.6053C9.62902 83.6089 10.4415 83.6129 11.2311 83.6866C14.4283 83.9844 17.0986 85.3755 16.4633 92.1769C16.4376 92.4539 16.3664 92.9041 16.2799 93.4535C15.9182 95.7465 15.2741 99.8281 16.4721 101.22L16.4726 101.22L16.4769 101.224C16.959 101.78 17.6886 102.316 18.4129 102.848C19.7536 103.833 21.0775 104.806 20.9916 105.977C20.9487 106.563 20.6095 107.398 20.2586 108.261C19.8344 109.306 19.3921 110.394 19.4687 111.053L19.4693 111.058V111.059C19.478 111.131 19.9025 111.697 20.4451 112.42C21.476 113.794 22.915 115.711 22.9277 116.374C22.9279 116.382 22.9279 116.389 22.9277 116.396C22.9209 116.675 22.9667 117.305 23.0254 118.109C23.1509 119.836 23.3352 122.367 23.1871 124.1C23.1845 124.131 23.184 124.137 23.1831 124.147C23.065 125.47 23.0328 126.686 23.0811 127.801C23.23 131.251 24.1423 133.747 25.6361 135.431C27.1078 137.091 29.1527 137.96 31.5929 138.178C32.2341 138.235 32.9064 138.248 33.6064 138.217C38.703 137.998 43.4927 138.731 47.1992 141.13C50.8958 143.523 53.4977 147.566 54.2237 153.965" fill="#8ED8F8"/>
<path d="M33.1636 119.691C33.1636 119.69 33.1638 119.689 33.1638 119.689C33.1638 119.689 33.1638 119.69 33.1636 119.691ZM33.1636 119.691V119.691V119.691ZM33.1636 119.694C33.1636 119.693 33.1636 119.692 33.1638 119.691C33.1636 119.692 33.1636 119.693 33.1636 119.694ZM33.1633 119.696C33.1633 119.695 33.1636 119.695 33.1636 119.694C33.1636 119.695 33.1633 119.695 33.1633 119.696ZM33.163 119.698C33.163 119.698 33.163 119.697 33.1633 119.696C33.1633 119.697 33.1633 119.698 33.163 119.698ZM33.163 119.701C33.163 119.7 33.1633 119.699 33.1633 119.698C33.163 119.699 33.163 119.7 33.163 119.701ZM32.8357 119.714C32.8417 119.65 32.8386 119.683 32.8355 119.714H32.8357ZM62.9256 148.729C62.235 142.64 59.7753 138.804 56.2835 136.543C52.7847 134.278 48.2411 133.587 43.3969 133.796C42.6963 133.826 42.0215 133.814 41.3766 133.756C38.8884 133.534 36.8008 132.645 35.2949 130.947C33.7946 129.256 32.8795 126.767 32.7315 123.342C32.684 122.243 32.7151 121.05 32.8307 119.758L32.8318 119.758C32.8335 119.74 32.8349 119.726 32.8357 119.715H32.8355C32.8326 119.744 32.8295 119.772 32.8346 119.715C32.9759 118.056 32.7987 115.619 32.6778 113.956C32.6207 113.171 32.576 112.558 32.5831 112.266C32.5831 112.263 32.5831 112.26 32.5831 112.256C32.5721 111.717 31.2165 109.91 30.2452 108.616C29.6888 107.874 29.253 107.293 29.2329 107.135L29.2324 107.13V107.129C29.1479 106.41 29.593 105.316 30.0197 104.265C30.3495 103.454 30.6682 102.669 30.7064 102.149C30.7765 101.194 29.5737 100.31 28.356 99.4158C27.6357 98.8865 26.91 98.3532 26.4135 97.7816L26.4092 97.7768L26.4087 97.7762C25.1449 96.3092 25.7841 92.2575 26.143 89.9817C26.225 89.4628 26.292 89.0377 26.3177 88.7639C26.9052 82.4742 24.5079 81.1949 21.6342 80.927C20.8998 80.8584 20.1198 80.8547 19.3509 80.851C16.4367 80.8372 13.6676 80.8242 13.1909 77.3453L13.1906 77.3425C12.8998 75.1943 15.7447 67.9804 18.7311 60.4077C22.2034 51.6034 25.8681 42.311 24.9932 40.125L24.9926 40.1239L24.9909 40.1196H24.9906C21.6958 31.8802 24.0804 22.5703 25.9975 15.0851C26.7325 12.216 27.3983 9.6158 27.6453 7.45996L27.968 7.49666C27.7182 9.67706 27.0502 12.286 26.3126 15.165C24.4071 22.6045 22.0369 31.8579 25.293 40.0002V40.0008L25.295 40.0056H25.2947C26.2157 42.3138 22.5278 51.6652 19.0335 60.5254C16.0626 68.0586 13.2324 75.2349 13.5119 77.299L13.5122 77.3018C13.9505 80.5004 16.5826 80.5129 19.352 80.5261C20.1215 80.5298 20.9015 80.5335 21.6633 80.6046C24.7103 80.8886 27.2534 82.2281 26.6401 88.793C26.6138 89.0764 26.5457 89.5063 26.4632 90.0308C26.1125 92.2535 25.4883 96.2109 26.6551 97.5654L26.6588 97.5693C27.131 98.113 27.842 98.6355 28.5476 99.1541C29.8391 100.103 31.1145 101.04 31.0314 102.171C30.9898 102.739 30.6606 103.549 30.3204 104.386C29.9092 105.399 29.4805 106.453 29.5545 107.09H29.5548L29.5554 107.095V107.096C29.5641 107.167 29.977 107.718 30.5043 108.421C31.5025 109.751 32.8951 111.607 32.9084 112.249C32.9084 112.257 32.9084 112.265 32.9084 112.273C32.9019 112.542 32.9462 113.152 33.003 113.932C33.1234 115.589 33.2995 118.009 33.1641 119.689C33.1644 119.684 33.1633 119.695 33.159 119.741H33.1599C33.1551 119.795 33.1607 119.73 33.1633 119.701C33.1621 119.714 33.161 119.728 33.1599 119.741H33.159C33.1579 119.753 33.1565 119.768 33.1548 119.786H33.1559C33.0412 121.068 33.0101 122.247 33.0567 123.328C33.2011 126.674 34.0868 129.097 35.5376 130.732C36.9828 132.362 38.9974 133.216 41.4049 133.431C42.0404 133.488 42.7011 133.5 43.383 133.471C48.288 133.26 52.8963 133.964 56.4601 136.271C60.0313 138.583 62.5452 142.496 63.2483 148.693L62.9256 148.729Z" fill="#C7C4E2"/>
<path d="M31.1882 116.446C31.1882 116.445 31.1885 116.445 31.1885 116.444C31.1885 116.445 31.1882 116.445 31.1882 116.446ZM31.1882 116.447C31.1882 116.447 31.1882 116.447 31.1882 116.446C31.1882 116.446 31.1882 116.446 31.1882 116.447ZM31.1882 116.45C31.1882 116.449 31.1882 116.447 31.1885 116.447C31.1882 116.448 31.1882 116.449 31.1882 116.45ZM31.1879 116.452C31.1879 116.451 31.1882 116.45 31.1882 116.45C31.1879 116.45 31.1879 116.451 31.1879 116.452ZM31.1876 116.454C31.1876 116.453 31.1876 116.452 31.1879 116.452C31.1876 116.453 31.1876 116.453 31.1876 116.454ZM31.1874 116.456C31.1874 116.456 31.1876 116.455 31.1876 116.454C31.1876 116.455 31.1876 116.456 31.1874 116.456ZM30.8604 116.47C30.8663 116.405 30.8632 116.439 30.8601 116.47H30.8604ZM60.95 145.484C60.2593 139.396 57.7996 135.559 54.3079 133.299C50.8091 131.034 46.2655 130.343 41.4213 130.551C40.7207 130.582 40.0459 130.569 39.401 130.512C36.9127 130.289 34.8252 129.4 33.3193 127.702C31.819 126.011 30.9039 123.522 30.7558 120.097C30.7084 118.998 30.7395 117.805 30.855 116.513L30.8564 116.513C30.8581 116.495 30.8593 116.481 30.8604 116.47H30.8601C30.8573 116.499 30.8542 116.527 30.8593 116.47C31.0006 114.811 30.8234 112.374 30.7024 110.71C30.6453 109.926 30.6007 109.313 30.6078 109.021C30.6078 109.018 30.6078 109.014 30.6078 109.011C30.5967 108.472 29.2411 106.665 28.2699 105.37C27.7131 104.629 27.2777 104.048 27.2576 103.89L27.257 103.885V103.884C27.1725 103.165 27.6176 102.07 28.0443 101.02C28.3741 100.208 28.6929 99.4237 28.731 98.9038C28.8011 97.9491 27.5984 97.0652 26.3807 96.1706C25.6604 95.6413 24.9347 95.1081 24.4381 94.5365L24.4339 94.5317L24.4333 94.5311C23.1696 93.064 23.8088 89.0124 24.1677 86.7365C24.2497 86.2177 24.3166 85.7926 24.3423 85.519C24.9299 79.2294 22.5326 77.95 19.6589 77.6821C18.9244 77.6138 18.1445 77.6099 17.3755 77.6065C14.4614 77.5927 11.6923 77.5794 11.2155 74.1005L11.2152 74.0976C10.9244 71.9494 13.7693 64.7355 16.7558 57.1629C20.228 48.3586 23.8927 39.0662 23.0178 36.8801L23.0173 36.8787L23.0156 36.8745H23.0153C19.7202 28.6351 22.105 19.3252 24.0222 11.84C24.7572 8.97084 25.4233 6.37068 25.67 4.21484L25.9924 4.25154C25.7426 6.43222 25.0746 9.04113 24.337 11.9199C22.4314 19.3593 20.0613 28.6128 23.3174 36.7551V36.7557L23.3194 36.7605H23.3191C24.24 39.0687 20.5522 48.4201 17.0579 57.2803C14.087 64.8135 11.2568 71.9898 11.5363 74.0539L11.5365 74.0567C11.9749 77.2553 14.6069 77.268 17.3764 77.281C18.1459 77.2847 18.9258 77.2883 19.6877 77.3592C22.7347 77.6432 25.2777 78.9824 24.6645 85.5476C24.6382 85.831 24.5701 86.2609 24.4876 86.7854C24.1369 89.0081 23.5126 92.9655 24.6795 94.3199L24.6832 94.3239C25.1554 94.8676 25.8664 95.3901 26.572 95.9087C27.8635 96.8574 29.1388 97.7946 29.0558 98.926C29.0142 99.4943 28.685 100.304 28.345 101.141C27.9338 102.153 27.5052 103.208 27.5792 103.845H27.5795L27.58 103.85V103.851C27.5888 103.923 28.0017 104.473 28.529 105.176C29.5271 106.506 30.9197 108.362 30.933 109.005C30.933 109.013 30.933 109.02 30.933 109.028C30.9265 109.297 30.9709 109.907 31.0277 110.687C31.1481 112.344 31.3241 114.764 31.1888 116.444C31.1891 116.439 31.1879 116.45 31.1837 116.496H31.1845C31.1797 116.55 31.1854 116.486 31.1879 116.456C31.1868 116.47 31.1857 116.483 31.1845 116.496H31.1837C31.1826 116.509 31.1811 116.524 31.1795 116.541H31.1806C31.0658 117.824 31.0348 119.003 31.0814 120.083C31.2258 123.43 32.1115 125.852 33.5623 127.488C35.0075 129.117 37.0221 129.972 39.4295 130.187C40.0651 130.243 40.7258 130.256 41.4077 130.226C46.3127 130.015 50.921 130.72 54.4848 133.027C58.056 135.338 60.5699 139.251 61.273 145.449L60.95 145.484Z" fill="#ED1C24"/>
<path d="M41.6561 113.835C41.6561 113.834 41.6563 113.833 41.6563 113.833C41.6561 113.834 41.6561 113.834 41.6561 113.835ZM41.6561 113.835V113.835C41.6561 113.835 41.6561 113.835 41.6561 113.835ZM41.6558 113.839C41.6558 113.837 41.6561 113.836 41.6561 113.835C41.6558 113.836 41.6558 113.837 41.6558 113.839ZM41.6555 113.84C41.6555 113.84 41.6558 113.839 41.6558 113.838C41.6558 113.839 41.6555 113.84 41.6555 113.84ZM41.6555 113.843C41.6555 113.842 41.6555 113.841 41.6558 113.841C41.6555 113.841 41.6555 113.842 41.6555 113.843ZM41.6552 113.845C41.6552 113.844 41.6555 113.843 41.6555 113.843C41.6552 113.844 41.6552 113.844 41.6552 113.845ZM41.328 113.859C41.3339 113.794 41.3308 113.827 41.3274 113.859H41.328ZM71.4179 142.873C70.7272 136.785 68.2675 132.948 64.7757 130.688C61.2769 128.422 56.7334 127.732 51.8891 127.941C51.1886 127.971 50.5137 127.958 49.8688 127.901C47.3806 127.679 45.2931 126.789 43.7871 125.091C42.2868 123.4 41.3715 120.911 41.2237 117.487C41.1762 116.388 41.2073 115.194 41.3229 113.903L41.3243 113.902C41.326 113.885 41.3271 113.87 41.3283 113.859H41.3277C41.3249 113.889 41.3218 113.916 41.3268 113.859C41.4681 112.201 41.291 109.763 41.17 108.1C41.1129 107.316 41.0683 106.703 41.0753 106.41C41.0753 106.407 41.0753 106.404 41.0753 106.401C41.0643 105.861 39.709 104.055 38.7374 102.76C38.181 102.018 37.7452 101.437 37.7252 101.279H37.7249L37.7243 101.274V101.273C37.6401 100.554 38.0849 99.4596 38.5116 98.4092C38.8414 97.5976 39.1602 96.8132 39.1983 96.2929C39.2684 95.3382 38.0657 94.4544 36.848 93.5598C36.1277 93.0305 35.402 92.4973 34.9054 91.9256L34.9012 91.9208L34.9006 91.9203C33.6369 90.4532 34.2761 86.4015 34.6353 84.1257C34.7172 83.6069 34.7842 83.1817 34.8096 82.9079C35.3971 76.6182 32.9999 75.3389 30.1262 75.071C29.3917 75.0024 28.6118 74.9988 27.8428 74.9951C24.9287 74.9812 22.1595 74.9683 21.6828 71.4893L21.6825 71.4865C21.3917 69.3383 24.2366 62.1244 27.2231 54.5517C30.6953 45.7474 34.36 36.4551 33.4851 34.269L33.4845 34.2679L33.4828 34.2637C30.1878 26.0242 32.5726 16.7143 34.4897 9.22918C35.2248 6.36 35.8908 3.75984 36.1375 1.604L36.46 1.6407C36.2102 3.8211 35.5421 6.43001 34.8048 9.30907C32.8993 16.7485 30.5292 26.0019 33.7852 34.1443V34.1448L33.7872 34.1496H33.7869C34.7079 36.4579 31.02 45.8093 27.5257 54.6695C24.5548 62.2026 21.7249 69.379 22.0041 71.443L22.0044 71.4459C22.4427 74.6445 25.0748 74.6569 27.8445 74.6702C28.6137 74.6738 29.394 74.6775 30.1559 74.7486C33.2028 75.0326 35.7459 76.3721 35.1326 82.937C35.1061 83.2204 35.0383 83.6503 34.9555 84.1748C34.6048 86.3976 33.9805 90.355 35.1473 91.7094L35.151 91.7133C35.6232 92.257 36.3342 92.7795 37.0402 93.2981C38.3316 94.2469 39.607 95.1841 39.5239 96.3152C39.4821 96.8835 39.1531 97.6931 38.8132 98.5303C38.4017 99.5426 37.9733 100.598 38.0473 101.234L38.0479 101.239V101.24C38.0567 101.311 38.4695 101.862 38.9968 102.565C39.995 103.895 41.3876 105.751 41.4009 106.393C41.4009 106.401 41.4009 106.409 41.4009 106.417C41.3944 106.686 41.4388 107.296 41.4956 108.076C41.6159 109.733 41.792 112.153 41.6566 113.833C41.6569 113.828 41.6558 113.839 41.6515 113.885H41.6524C41.6476 113.939 41.6532 113.875 41.6558 113.845C41.6547 113.858 41.6535 113.872 41.6524 113.885H41.6515C41.6504 113.898 41.649 113.913 41.6473 113.93H41.6484C41.5337 115.212 41.5026 116.392 41.5492 117.472C41.6937 120.819 42.5793 123.241 44.0302 124.877C45.4753 126.506 47.49 127.361 49.8971 127.576C50.5329 127.632 51.1934 127.645 51.8753 127.615C56.7803 127.404 61.3886 128.109 64.9526 130.416C68.5235 132.728 71.0378 136.64 71.7409 142.838L71.4179 142.873Z" fill="#2E3192"/>
</svg>
